<svg width="97" height="78" viewBox="0 0 97 78" fill="none" xmlns="http://www.w3.org/2000/svg">
<path d="M19.9706 77.5825C23.9647 77.5825 27.9588 76.4355 31.3824 73.568C40.5118 78.7296 51.9235 78.7296 60.4824 72.9945C65.0471 75.862 69.6118 77.5825 74.1765 77.5825C86.7294 77.5825 97 67.2595 97 54.6424C97 42.0253 86.7294 31.7023 74.1765 31.7023C72.4647 31.7023 70.7529 31.7023 69.0412 32.2758C59.9118 19.0852 42.2235 16.2177 29.6706 25.3937C25.1059 28.2612 21.6824 32.8493 19.9706 37.4373C8.55882 37.4373 0 46.6133 0 57.5099C0 68.98 9.12941 77.5825 19.9706 77.5825Z" fill="#9FDDFF"/>
<path d="M8.14409 33.0371L9.67799 29.9484L11.0985 30.6271L8.90057 35.1933L1.31204 31.4744L3.50787 26.9571L4.92839 27.6359L3.44647 30.6789L5.06221 31.4682L6.43381 28.6632L7.85433 29.342L6.48273 32.1469L8.14409 33.0371Z" fill="white"/>
<path d="M13.9584 26.8149C13.2145 27.7989 12.2878 28.3782 11.1305 28.5008C9.97329 28.6234 8.883 28.3573 7.86394 27.6046C6.84488 26.852 6.23389 25.9289 6.08304 24.7896C5.88226 23.6471 6.17879 22.5855 6.87276 21.5984C7.29999 20.9871 7.86853 20.5814 8.53272 20.28C9.1969 19.9786 9.90252 19.8763 10.5996 19.9699L10.4295 21.5798C9.98214 21.5022 9.57832 21.5746 9.22019 21.7482C8.81212 21.9186 8.49968 22.1934 8.18299 22.5661C7.70369 23.2231 7.52619 23.8503 7.64624 24.5456C7.76629 25.2409 8.14245 25.8051 8.82253 26.2906C9.50262 26.7761 10.1455 26.9644 10.8511 26.8621C11.5568 26.7598 12.1731 26.4063 12.6524 25.7492C12.9192 25.3733 13.086 24.9911 13.1551 24.5534C13.2242 24.1158 13.1413 23.7176 12.9565 23.362L14.4867 22.7229C14.7587 23.3788 14.8809 24.0251 14.7991 24.7566C14.663 25.5829 14.3856 26.2037 13.9584 26.8149Z" fill="white"/>
<path d="M20.8094 18.0362C20.7583 19.2118 20.2662 20.1628 19.331 20.9381C18.4457 21.7166 17.3797 22.0415 16.1809 21.965C14.9821 21.8884 14.0023 21.3838 13.1915 20.4479C12.3806 19.512 12.0236 18.5068 12.0747 17.3312C12.1258 16.1556 12.6179 15.2047 13.5531 14.4293C14.4384 13.6508 15.5044 13.3259 16.7032 13.4025C17.902 13.479 18.8818 13.9836 19.7426 14.9227C20.6034 15.8618 20.9104 16.8638 20.8094 18.0362ZM16.3489 20.4039C17.0982 20.4517 17.7082 20.2451 18.281 19.7413C18.8539 19.2376 19.1791 18.6689 19.211 17.9342C19.243 17.1994 19.0209 16.5467 18.4948 15.9728C17.9688 15.3989 17.3322 15.0635 16.583 15.0157C15.8338 14.9679 15.1738 15.1713 14.6009 15.6751C14.0281 16.1788 13.7028 16.7475 13.6709 17.4822C13.639 18.217 13.8611 18.8697 14.3871 19.4436C14.961 20.0697 15.5997 20.356 16.3489 20.4039Z" fill="white"/>
<path d="M24.3693 13.6334L23.677 12.3159L27.6562 10.4139L28.3485 11.7314L24.3693 13.6334Z" fill="white"/>
<path d="M36.7162 5.15442L33.4621 5.88328L33.933 7.78628L37.1369 7.05422L37.5245 8.55759L34.3206 9.28966L35.0916 12.3947L33.4656 12.7346L31.4486 4.71975L36.3286 3.65104L36.7162 5.15442Z" fill="white"/>
<path d="M43.7324 11.2312L41.7958 8.45113L40.5382 8.51837L40.7648 11.386L39.1047 11.4767L38.4602 3.22043L41.8304 3.04219C42.5853 2.99203 43.2774 3.23302 43.8588 3.71289C44.4401 4.19276 44.7627 4.85286 44.8308 5.5951C44.8595 6.08885 44.7381 6.57302 44.5165 7.05079C44.245 7.52536 43.8797 7.84638 43.4165 8.11194L45.5448 11.1011L43.7324 11.2312ZM40.2543 4.66323L40.45 7.08616L42.1601 6.99864C42.4625 6.96876 42.7191 6.83758 42.93 6.60509C43.1408 6.3726 43.2037 6.08146 43.2186 5.73807C43.1835 5.39148 43.0441 5.13661 42.8045 4.87534C42.5628 4.66313 42.2668 4.54584 41.9644 4.57571L40.2543 4.66323Z" fill="white"/>
<path d="M46.6604 2.97505L48.3661 3.12871L47.8452 11.4171L46.1395 11.2634L46.6604 2.97505Z" fill="white"/>
<path d="M51.0111 10.1745L54.505 10.841L54.2378 12.3516L49.0963 11.3828L50.4577 3.24009L55.5512 4.1565L55.2841 5.66711L51.8382 5.05296L51.5625 6.76014L54.7072 7.35507L54.4401 8.86568L51.2954 8.27075L51.0111 10.1745Z" fill="white"/>
<path d="M62.3534 6.4136L63.9328 7.00627L61.1382 14.7453L59.9526 14.3254L58.2555 8.36481L56.5457 13.075L54.9663 12.4823L57.7609 4.74325L58.9465 5.16324L60.6436 11.1238L62.3534 6.4136Z" fill="white"/>
<path d="M69.2422 9.95965C70.2183 10.5625 70.8339 11.3879 71.0869 12.4851C71.3399 13.5822 71.1453 14.6016 70.5508 15.5955C69.9564 16.5894 69.077 17.2211 68.0147 17.4481C66.9503 17.724 65.9051 17.559 64.929 16.9562L62.0486 15.1999L66.4097 8.25557L69.2422 9.95965ZM65.7383 15.6321C66.3731 16.0166 66.9706 16.1039 67.6288 15.9494C68.287 15.7949 68.806 15.3858 69.1856 14.7221C69.5652 14.0585 69.7428 13.4311 69.5706 12.7813C69.3984 12.1316 69.0699 11.6192 68.4351 11.2348L67.0199 10.3582L64.3252 14.7066L65.7383 15.6321Z" fill="white"/>
<path d="M71.1488 19.6159L73.5723 21.7417L72.5151 22.9062L68.8318 19.6652L74.3816 13.5641L75.6414 14.6793L71.1488 19.6159Z" fill="white"/>
<path d="M82.809 22.2402L77.0538 23.297L74.6107 25.3509L73.513 24.1022L75.9561 22.0483L77.9424 16.675L79.1835 18.0801L77.7254 21.6702L81.5679 20.8351L82.809 22.2402Z" fill="white"/>
</svg>
