<svg xmlns="http://www.w3.org/2000/svg" width="902" height="536" viewBox="0 0 902 536" fill="none">
  <path d="M110.227 217.882C107.122 208.269 107.122 197.055 107.122 187.442C107.122 118.553 161.46 60.8787 229.769 60.8787C260.819 60.8787 290.317 73.6953 312.052 94.5222C336.892 38.4497 391.229 0 453.329 0C532.506 0 599.263 62.4808 608.578 142.584C620.998 136.176 636.523 132.972 650.496 132.972C697.071 132.972 737.435 165.013 749.855 209.871C759.17 208.269 768.485 206.667 779.353 206.667C846.11 206.667 902 262.74 902 333.231C902 402.12 847.663 459.795 779.353 459.795C770.038 459.795 759.17 458.192 749.855 454.988C717.253 499.846 662.916 527.082 603.921 527.082C572.871 527.082 541.821 519.071 515.429 504.653C478.169 523.877 434.699 527.082 395.886 512.663C369.494 527.082 339.997 535.092 308.947 535.092C249.952 535.092 197.167 507.857 164.565 462.999C150.592 467.805 136.62 471.009 122.647 471.009C55.8898 471.009 0 414.937 0 344.445C0 278.76 48.1273 224.29 110.227 217.882Z" fill="white"/>
</svg>