<svg width="160" height="140" viewBox="0 0 160 140" fill="none" xmlns="http://www.w3.org/2000/svg">
<path d="M27.7181 114.456C33.2454 115.774 39.1513 115.504 44.8353 112.666C55.7661 122.821 71.5586 126.587 85.2955 121.475C90.6663 126.95 96.4155 130.837 102.733 132.343C120.104 136.485 137.724 125.589 141.888 108.128C146.051 90.6677 135.244 72.9926 117.873 68.8503C115.504 68.2854 113.135 67.7205 110.577 67.9493C102.295 46.6825 78.7633 36.8772 58.3636 45.4335C51.1003 47.8954 44.8485 53.115 40.9656 58.8994C25.1731 55.1336 10.3007 65.0079 6.70494 80.0874C2.91992 95.9606 12.7152 110.878 27.7181 114.456Z" fill="#2457A0"/>
<path d="M26.0403 48.9082L29.1887 45.124L30.9251 46.5299L26.367 52.147L17.122 44.5076L21.6609 38.9576L23.3973 40.3635L20.336 44.1014L22.3053 45.7243L25.1348 42.2808L26.8712 43.6867L24.0417 47.1303L26.0403 48.9082Z" fill="white"/>
<path d="M36.1331 42.2114C34.7779 43.3331 33.305 43.8339 31.6658 43.6259C30.0266 43.4179 28.6094 42.6928 27.4526 41.316C26.2958 39.9391 25.7594 38.4593 25.9305 36.8299C26.0338 35.1797 26.797 33.8041 28.0843 32.6617C28.8779 31.9535 29.7984 31.5765 30.8161 31.3754C31.8339 31.1743 32.8425 31.2629 33.7742 31.6205L33.0029 33.7978C32.4109 33.544 31.829 33.5126 31.2766 33.6364C30.6562 33.7394 30.1331 34.0184 29.5716 34.4319C28.6907 35.1866 28.2367 35.9985 28.1709 37.002C28.1051 38.0056 28.4367 38.9111 29.2143 39.8066C29.9919 40.702 30.8171 41.1733 31.8257 41.2619C32.8344 41.3505 33.8035 41.0615 34.6843 40.3068C35.1779 39.8725 35.5357 39.3968 35.7769 38.8124C36.0182 38.228 36.0363 37.6486 35.8994 37.095L38.2259 36.7086C38.3831 37.7071 38.3366 38.6434 37.9798 39.6312C37.5167 40.7328 36.9268 41.5032 36.1331 42.2114Z" fill="white"/>
<path d="M48.5155 32.314C48.0534 33.9278 47.057 35.086 45.507 35.8558C44.0249 36.6464 42.4444 36.7488 40.8142 36.2511C39.184 35.7533 37.9988 34.7334 37.1906 33.1705C36.3825 31.6076 36.2242 30.0968 36.6863 28.483C37.1485 26.8692 38.1449 25.711 39.6949 24.9412C41.177 24.1506 42.7574 24.0482 44.3876 24.5459C46.0179 25.0437 47.2031 26.0636 48.0791 27.6473C48.9552 29.2309 49.0456 30.7209 48.5155 32.314ZM41.5662 34.1408C42.5851 34.4519 43.4965 34.3645 44.4555 33.853C45.4145 33.3415 46.0531 32.659 46.3419 31.6504C46.6307 30.6417 46.5414 29.6639 46.006 28.6961C45.4707 27.7283 44.7032 27.0553 43.6843 26.7442C42.6654 26.4331 41.6861 26.4997 40.7271 27.0112C39.7681 27.5228 39.1295 28.2053 38.8407 29.2139C38.5519 30.2225 38.6412 31.2004 39.1765 32.1681C39.7606 33.2239 40.5473 33.8297 41.5662 34.1408Z" fill="white"/>
<path d="M54.9062 27.4206L54.3887 25.3661L60.5207 24.0271L61.0383 26.0816L54.9062 27.4206Z" fill="white"/>
<path d="M74.7924 19.7351L70.0589 19.6831L70.0754 22.4744L74.7407 22.5056L74.7752 24.7158L70.1099 24.6847L70.1404 29.24L67.7833 29.1803L67.6673 17.4131L74.7579 17.5248L74.7924 19.7351Z" fill="white"/>
<path d="M82.4797 30.4789L80.7315 25.9918L78.9728 25.6743L78.3306 29.7244L76.0083 29.3081L77.8677 17.6499L82.5804 18.5033C83.6395 18.6803 84.5149 19.2405 85.1578 20.0957C85.8007 20.9509 86.0263 21.9715 85.8731 23.0229C85.7483 23.7168 85.4194 24.3485 84.9544 24.9386C84.4214 25.5079 83.8102 25.8338 83.0822 26.0507L85.0254 30.8902L82.4797 30.4789ZM79.8645 20.2363L79.3278 23.6597L81.7182 24.0968C82.1457 24.1541 82.5437 24.056 82.9123 23.8025C83.2808 23.549 83.4646 23.1659 83.5995 22.6946C83.6665 22.2026 83.5588 21.8037 83.315 21.3632C83.052 20.99 82.6823 20.7307 82.2548 20.6734L79.8645 20.2363Z" fill="white"/>
<path d="M89.286 20.0147L91.5829 20.7836L88.1144 32.0896L85.8174 31.3206L89.286 20.0147Z" fill="white"/>
<path d="M92.9164 31.4239L97.5167 33.4883L96.6452 35.4949L89.8715 32.4737L94.4608 21.6316L101.186 24.5645L100.314 26.5712L95.7627 24.595L94.814 26.8713L98.9561 28.7225L98.0846 30.7291L93.9424 28.8779L92.9164 31.4239Z" fill="white"/>
<path d="M109.857 29.9332L111.841 31.2708L105.404 41.0893L103.907 40.1197L103.549 31.3005L99.6193 37.2734L97.6357 35.9357L104.072 26.1172L105.569 27.0868L105.928 35.906L109.857 29.9332Z" fill="white"/>
<path d="M118.221 37.1154C119.368 38.2702 119.943 39.6161 119.927 41.2203C119.911 42.8244 119.303 44.1746 118.151 45.3588C116.999 46.543 115.574 47.1318 114.032 47.0997C112.47 47.1347 111.081 46.5645 109.934 45.4097L106.541 42.0332L114.877 33.8269L118.221 37.1154ZM111.492 43.8377C112.241 44.5782 113.037 44.8945 113.998 44.8952C114.958 44.8959 115.811 44.498 116.556 43.7017C117.302 42.9053 117.756 42.0932 117.735 41.1358C117.713 40.1785 117.43 39.3607 116.682 38.6201L115.019 36.9423L109.849 42.0925L111.492 43.8377Z" fill="white"/>
<path d="M117.671 51.1322L120.308 54.8699L118.461 56.1388L114.456 50.444L124.147 43.7991L125.514 45.7561L117.671 51.1322Z" fill="white"/>
<path d="M132.926 58.5927L124.625 58.1784L120.566 60.2291L119.466 58.1387L123.524 56.088L128.058 49.2841L129.304 51.6384L126.094 56.1415L131.68 56.2384L132.926 58.5927Z" fill="white"/>
</svg>
