<svg width="293" height="328" viewBox="0 0 293 328" fill="none" xmlns="http://www.w3.org/2000/svg">
<path d="M208.591 212.792L208.687 218.533L206.312 218.378L206.374 210.259L219.704 210.649L219.199 218.261L216.824 218.107L216.728 212.366L213.879 212.181L213.531 217.414L211.156 217.26L211.441 212.978L208.591 212.792Z" fill="white"/>
<path d="M206.166 227.912C206.292 226.009 207.368 224.169 208.856 223.31C210.376 221.976 211.832 221.593 214.206 221.748C216.106 221.871 217.942 222.946 218.797 224.435C219.652 225.924 220.032 227.381 219.906 229.284C219.811 230.711 219.273 231.631 218.735 232.551C218.197 233.471 217.184 234.361 216.202 234.775L214.936 232.304C215.442 231.859 215.949 231.414 216.455 230.97C216.962 230.525 217.025 229.574 217.056 229.098C217.151 227.671 216.739 226.689 216.328 225.707C215.441 224.694 214.523 224.157 213.098 224.064C211.674 223.971 210.693 224.385 209.711 224.799C208.73 225.212 208.16 226.608 208.097 227.56C208.034 228.511 208.002 228.986 208.445 229.493C208.889 229.999 209.744 231.488 210.187 231.995L208.604 234.28C207.686 233.742 206.8 232.729 206.388 231.747C205.976 230.765 206.071 229.338 206.166 227.912Z" fill="white"/>
<path d="M203.075 245.849C202.22 244.36 202.347 242.458 202.948 240.586C203.549 238.715 205.068 237.381 206.556 236.523C208.044 235.664 209.943 235.788 211.811 236.387C213.679 236.986 215.04 238.03 215.864 239.994C216.687 241.958 216.592 243.385 215.991 245.257C215.39 247.128 214.345 248.493 212.383 249.321C210.895 250.179 208.995 250.055 207.128 249.456C205.291 248.381 203.93 247.337 203.075 245.849ZM207.854 238.518C206.873 238.931 205.86 239.821 205.765 241.247C205.227 242.168 205.607 243.625 206.019 244.607C206.431 245.59 206.874 246.096 208.267 246.664C209.66 247.233 210.641 246.819 211.622 246.405C212.604 245.991 213.617 245.102 213.68 244.151C214.249 242.755 214.313 241.804 213.426 240.791C213.014 239.809 212.128 238.796 210.703 238.703C209.785 238.166 208.836 238.104 207.854 238.518Z" fill="white"/>
<path d="M202.038 254.364L204.349 255.469L201.058 261.941L198.748 260.835L202.038 254.364Z" fill="white"/>
<path d="M196.223 277.376L198.914 272.775L196.159 271.162L193.469 275.764L191.158 274.658L193.848 270.057L189.257 267.369L190.84 265.084L202.776 272.071L198.503 278.957L196.223 277.376Z" fill="white"/>
<path d="M182.264 279.322L187.488 279.663L188.564 277.822L184.923 275.196L185.999 273.356L196.955 280.757L193.789 285.327C193.251 286.248 192.238 287.137 190.814 287.045C189.832 287.458 188.439 286.89 187.521 286.352C187.552 285.877 186.634 285.339 186.697 284.388C186.254 283.882 186.317 282.93 186.38 281.979L180.682 281.608L182.264 279.322ZM193.567 281.491L190.369 279.372L188.787 281.658C188.28 282.103 188.248 282.578 188.692 283.085C189.135 283.591 189.135 283.591 189.578 284.098C190.022 284.604 190.497 284.635 190.972 284.666C191.446 284.697 191.953 284.253 191.985 283.777L193.567 281.491Z" fill="white"/>
<path d="M190.596 290.366L189.013 292.651L178.09 284.773L179.672 282.488L190.596 290.366Z" fill="white"/>
<path d="M177.238 290.443L174.073 295.014L172.268 293.464L176.509 287.052L187.432 294.929L182.716 301.309L180.911 299.758L184.077 295.188L181.797 293.606L178.663 297.701L176.859 296.151L179.486 292.501L177.238 290.443Z" fill="white"/>
<path d="M175.977 309.456L174.426 311.266L164.01 302.945L165.055 301.58L175.026 302.229L168.694 297.04L170.752 294.785L180.661 303.551L179.616 304.916L169.645 304.267L175.977 309.456Z" fill="white"/>
<path d="M164.929 317.799C163.442 318.658 161.511 319.01 160.118 318.441C158.25 317.842 156.889 316.798 156.034 315.31C155.179 313.821 154.83 311.888 155.4 310.492C155.97 309.096 157.046 307.256 158.533 306.397L162.996 303.822L169.424 314.749L164.929 317.799ZM159.831 308.392C158.85 308.806 158.312 309.726 157.774 310.647C157.711 311.598 157.648 312.549 158.534 313.562C158.946 314.544 159.864 315.081 160.782 315.619C161.732 315.681 162.681 315.743 163.663 315.329L166.132 314.057L161.826 307.089L159.831 308.392Z" fill="white"/>
<path d="M150.552 311.598L145.266 312.209L144.949 309.801L152.64 308.869L154.13 322.338L151.756 322.183L150.552 311.598Z" fill="white"/>
<path d="M133.77 320.05L140.416 313.319L141.682 308.626L144.024 309.256L142.758 313.949L145.007 323.17L142.19 322.509L140.701 316.203L136.587 320.711L133.77 320.05Z" fill="white"/>
<path d="M291.133 142.891C291.133 142.268 291.133 142.268 291.133 142.891C290.51 142.268 289.887 141.645 289.887 141.022C287.395 139.153 225.727 93.058 192.713 93.058C178.386 93.058 167.174 101.156 159.076 111.122C157.207 110.499 154.715 109.877 152.224 109.254V5.85056C152.224 3.35892 150.355 0.867281 147.863 0.244371C145.995 -0.37854 143.503 0.244371 142.257 1.49019C141.634 2.1131 141.634 2.1131 141.011 2.73601C139.143 4.60474 93.0472 66.2729 93.0472 99.2871C93.0472 113.614 101.145 124.826 111.112 132.924C110.489 134.793 109.866 137.285 109.243 139.776H5.83978C3.34814 139.776 0.856502 141.645 0.233591 144.137C-0.389319 146.628 0.233591 149.743 2.10232 150.989C2.72523 151.612 5.21687 153.48 9.57725 156.595C10.8231 157.841 12.6918 159.086 14.5605 160.332C15.8064 160.955 17.0522 162.201 18.9209 163.447C19.5438 164.07 20.1667 164.07 20.1667 164.693C21.4125 165.939 23.2813 166.561 24.5271 167.807C25.7729 167.184 26.3958 167.807 27.0187 167.807C28.2646 169.053 30.1333 169.676 31.3791 170.922C32.002 171.545 32.6249 171.545 33.8708 172.168C35.1166 173.413 36.9853 174.036 38.2311 175.282C38.854 175.905 40.0999 176.528 40.7228 176.528C42.5915 177.151 43.8373 178.397 45.706 179.02C46.329 179.643 47.5748 180.265 48.1977 180.265C50.0664 180.888 51.3122 182.134 53.181 182.757C54.4268 183.38 55.0497 184.003 56.2955 184.003C58.1643 184.626 59.4101 185.872 61.2788 186.495C62.5246 187.117 63.1475 187.74 64.3934 187.74C65.6392 188.363 67.5079 188.986 68.7537 189.609C69.9996 190.232 70.6225 190.232 71.8683 190.855C73.1141 191.478 74.9828 192.101 76.2287 192.724C77.4745 193.347 78.0974 193.347 79.3432 193.969C80.589 194.592 82.4578 194.592 83.7036 195.215C84.3265 195.215 85.5723 195.838 86.1952 195.838C87.441 196.461 89.3098 196.461 90.5556 197.084C91.1785 197.084 91.8014 197.707 93.0472 197.707C94.916 197.707 97.4076 198.33 99.2763 198.33C113.603 198.33 124.816 190.232 132.913 180.265C134.782 180.888 137.274 181.511 139.766 182.134V286.16C139.766 288.652 141.634 291.143 144.126 291.766C146.618 292.389 149.732 291.766 150.978 289.898C151.601 289.275 155.338 283.669 160.944 275.571C161.567 274.948 162.19 273.702 162.813 273.079C163.436 272.456 163.436 271.833 164.059 271.21C164.682 269.965 165.928 268.719 166.551 267.473C167.174 266.85 167.796 266.227 167.796 264.981C168.419 263.735 169.665 262.49 170.288 260.621C170.911 259.998 171.534 258.752 172.157 258.129C172.78 256.883 174.026 255.015 174.648 253.769C175.271 253.146 175.894 251.9 176.517 251.277C177.14 250.031 178.386 248.163 179.009 246.917C179.632 245.671 180.255 245.048 180.878 243.802C181.501 242.556 182.746 240.688 183.369 239.442C183.992 238.196 184.615 237.573 185.238 236.327C185.861 235.082 186.484 233.213 187.73 231.967C188.353 230.721 188.975 230.098 188.975 228.852C189.598 227.607 190.221 225.738 190.844 224.492C191.467 223.246 191.467 222.623 192.09 221.378C192.713 220.132 193.336 218.263 193.959 217.017C194.582 215.771 194.582 215.148 195.205 213.903C195.827 212.657 195.827 210.788 196.45 209.542C196.45 208.296 197.073 207.674 197.073 206.428C197.696 205.182 197.696 203.313 197.696 202.067C197.696 201.444 198.319 200.199 198.319 199.576C198.319 197.707 198.942 195.838 198.942 193.969V193.347C198.942 179.02 190.844 167.807 180.878 159.709C181.501 157.841 182.123 155.349 182.746 152.857H286.149C288.641 152.857 291.133 150.989 291.756 148.497C291.756 147.874 292.379 147.251 292.379 146.628C292.379 144.76 291.756 143.514 291.133 142.891ZM141.011 170.299C140.388 170.299 140.388 170.299 139.766 169.676C136.028 168.43 132.913 167.184 129.799 164.693C126.061 161.578 122.947 157.218 121.701 152.234C121.078 150.366 121.078 147.874 121.078 146.005C121.078 144.137 121.078 142.891 121.701 141.022C121.701 140.399 121.701 140.399 122.324 139.776C123.57 136.039 124.816 132.924 127.307 129.81C130.422 126.072 134.782 122.958 139.766 121.712C141.634 121.089 144.126 121.089 145.995 121.089C147.863 121.089 149.109 121.089 150.978 121.712C151.601 121.712 151.601 121.712 152.224 122.335C155.961 123.581 159.076 124.826 162.19 127.318C165.928 130.433 169.042 134.793 170.288 139.776C170.911 141.645 170.911 144.137 170.911 146.005C170.911 147.874 170.911 149.12 170.288 150.989C170.288 151.612 170.288 151.612 169.665 152.234C168.419 155.972 167.174 159.087 164.682 162.201C161.567 165.939 157.207 169.053 152.224 170.299C150.355 170.922 147.863 170.922 145.995 170.922C144.126 170.922 142.88 170.922 141.011 170.299Z" fill="white"/>
</svg>
