<svg width="250" height="266" viewBox="0 0 250 266" fill="none" xmlns="http://www.w3.org/2000/svg">
<g id="Group 1258">
<g id="Group">
<path id="Vector" d="M174.013 152.733L175.144 156.41L173.584 156.751L172.111 151.513L180.781 149.291L181.873 154.285L180.313 154.626L179.182 150.948L177.309 151.358L178.06 154.791L176.499 155.132L175.885 152.323L174.013 152.733Z" fill="#FFC444"/>
<path id="Vector_2" d="M175.26 162.926C174.987 161.677 175.339 160.292 176.138 159.463C176.87 158.322 177.738 157.805 179.298 157.464C180.546 157.191 181.931 157.543 182.76 158.343C183.589 159.143 184.106 160.011 184.379 161.26C184.583 162.196 184.408 162.889 184.232 163.581C184.056 164.274 183.569 165.034 183.013 165.483L181.735 164.127C181.979 163.746 182.223 163.366 182.467 162.986C182.711 162.605 182.574 161.981 182.506 161.669C182.301 160.733 181.853 160.176 181.404 159.62C180.644 159.133 179.951 158.957 179.015 159.162C178.079 159.366 177.523 159.815 176.967 160.263C176.411 160.712 176.304 161.717 176.44 162.341C176.577 162.965 176.645 163.277 177.025 163.521C177.406 163.765 178.234 164.565 178.615 164.809L178.02 166.574C177.327 166.399 176.567 165.911 176.118 165.355C175.67 164.799 175.465 163.862 175.26 162.926Z" fill="#FFC444"/>
<path id="Vector_3" d="M176.605 175.06C175.776 174.26 175.503 173.012 175.542 171.695C175.582 170.378 176.313 169.237 177.113 168.408C177.912 167.579 179.161 167.306 180.477 167.346C181.794 167.385 182.866 167.805 183.764 168.917C184.661 170.029 184.865 170.965 184.826 172.282C184.787 173.599 184.368 174.672 183.256 175.569C182.456 176.398 181.208 176.671 179.891 176.631C178.507 176.28 177.434 175.86 176.605 175.06ZM178.322 169.452C177.766 169.901 177.278 170.661 177.483 171.598C177.307 172.29 177.824 173.159 178.273 173.715C178.721 174.271 179.102 174.515 180.106 174.622C181.111 174.73 181.666 174.281 182.222 173.832C182.778 173.384 183.266 172.623 183.129 171.999C183.237 170.994 183.1 170.37 182.34 169.882C181.891 169.326 181.131 168.838 180.194 169.043C179.502 168.867 178.878 169.004 178.322 169.452Z" fill="#FFC444"/>
<path id="Vector_4" d="M177.521 180.747L179.218 181.03L178.301 185.809L176.604 185.526L177.521 180.747Z" fill="#FFC444"/>
<path id="Vector_5" d="M178.056 196.656L178.934 193.193L176.857 192.666L175.979 196.129L174.282 195.846L175.16 192.383L171.698 191.505L172.293 189.739L181.294 192.023L179.821 197.251L178.056 196.656Z" fill="#FFC444"/>
<path id="Vector_6" d="M169.415 200.507L172.848 199.757L173.199 198.372L170.362 197.357L170.713 195.972L179.158 198.705L177.968 202.235C177.792 202.928 177.305 203.689 176.368 203.893C175.812 204.342 174.808 204.234 174.116 204.059C174.047 203.746 173.355 203.571 173.219 202.946C172.838 202.703 172.702 202.078 172.565 201.454L168.82 202.273L169.415 200.507ZM177.11 199.806L174.652 199.035L174.057 200.801C173.814 201.181 173.882 201.493 174.262 201.737C174.642 201.981 174.642 201.981 175.023 202.225C175.403 202.469 175.715 202.401 176.027 202.332C176.339 202.264 176.583 201.884 176.515 201.572L177.11 199.806Z" fill="#FFC444"/>
<path id="Vector_7" d="M176.846 206.078L176.251 207.844L167.738 204.799L168.333 203.033L176.846 206.078Z" fill="#FFC444"/>
<path id="Vector_8" d="M168.245 208.613L167.055 212.144L165.602 211.48L167.143 206.564L175.656 209.609L173.803 214.593L172.35 213.93L173.54 210.399L171.775 209.804L170.516 213.022L169.063 212.359L170.078 209.52L168.245 208.613Z" fill="#FFC444"/>
<path id="Vector_9" d="M170.974 221.098L170.311 222.552L162.041 219.126L162.461 218.053L169.014 216.621L163.963 214.454L164.87 212.621L172.896 216.426L172.476 217.499L165.923 218.932L170.974 221.098Z" fill="#FFC444"/>
<path id="Vector_10" d="M165.405 228.53C164.605 229.359 163.425 229.944 162.421 229.836C161.104 229.797 160.032 229.377 159.203 228.577C158.374 227.777 157.789 226.597 157.896 225.592C158.004 224.588 158.355 223.203 159.154 222.374L161.554 219.887L167.736 225.731L165.405 228.53ZM160.364 223.418C159.808 223.866 159.632 224.559 159.457 225.251C159.593 225.876 159.729 226.5 160.49 226.988C160.939 227.544 161.631 227.72 162.323 227.895C162.948 227.759 163.572 227.622 164.128 227.174L165.483 225.896L161.407 222.208L160.364 223.418Z" fill="#FFC444"/>
<path id="Vector_11" d="M154.98 227.211L151.684 228.586L151.031 227.094L155.819 225.066L159.29 233.465L157.73 233.806L154.98 227.211Z" fill="#FFC444"/>
<path id="Vector_12" d="M145.735 235.774L148.768 230.205L148.71 226.947L150.338 226.918L150.397 230.176L153.565 235.697L151.625 235.794L149.489 232.009L147.675 235.677L145.735 235.774Z" fill="#FFC444"/>
</g>
<g id="Group_2">
<path id="Vector_13" d="M214.217 92.3294C214.101 91.928 214.101 91.928 214.217 92.3294C213.7 92.0438 213.182 91.7581 213.066 91.3567C211.113 90.6156 162.794 72.3735 141.515 78.5129C132.281 81.1771 126.56 88.4815 123.194 96.4112C121.874 96.3572 120.152 96.4191 118.43 96.4809L99.2012 29.8342C98.7379 28.2283 97.0701 26.9698 95.3483 27.0317C94.028 26.9777 92.5379 27.8425 91.9666 28.8772C91.6809 29.3945 91.6809 29.3945 91.3953 29.9118C90.5383 31.4638 72.2962 79.7829 78.4356 101.062C81.0999 110.296 88.4043 116.017 96.334 119.383C96.28 120.703 96.3418 122.425 96.4037 124.147L29.757 143.376C28.151 143.839 26.8926 145.507 26.9545 147.229C27.0163 148.95 27.997 150.842 29.4331 151.297C29.9504 151.583 31.9039 152.324 35.2935 153.521C36.3281 154.092 37.7643 154.547 39.2004 155.003C40.1192 155.173 41.1539 155.744 42.59 156.199C43.1073 156.485 43.5088 156.369 43.6247 156.771C44.6593 157.342 45.9796 157.396 47.0142 157.967C47.7014 157.334 48.2187 157.62 48.6202 157.504C49.6548 158.075 50.9751 158.129 52.0098 158.701C52.5271 158.986 52.9286 158.87 53.8474 159.04C54.882 159.611 56.2023 159.665 57.237 160.237C57.7543 160.522 58.6731 160.692 59.0746 160.576C60.3949 160.63 61.4296 161.202 62.7499 161.256C63.2672 161.541 64.186 161.711 64.5875 161.595C65.9078 161.649 66.9424 162.221 68.2627 162.274C69.1815 162.444 69.6989 162.73 70.5018 162.498C71.8221 162.552 72.8568 163.124 74.1771 163.178C75.0959 163.347 75.6132 163.633 76.4162 163.401C77.335 163.571 78.6553 163.625 79.5741 163.795C80.4929 163.965 80.8944 163.849 81.8132 164.019C82.732 164.188 84.0523 164.242 84.9711 164.412C85.8899 164.582 86.2914 164.466 87.2102 164.636C88.129 164.806 89.3335 164.458 90.2523 164.628C90.6538 164.512 91.5726 164.682 91.9741 164.566C92.8929 164.736 94.0974 164.389 95.0162 164.558C95.4176 164.443 95.935 164.728 96.7379 164.497C97.9424 164.149 99.6642 164.087 100.869 163.74C110.103 161.075 115.824 153.771 119.19 145.841C120.51 145.895 122.232 145.833 123.953 145.772L143.298 212.82C143.762 214.426 145.43 215.684 147.151 215.622C148.873 215.56 150.765 214.58 151.22 213.144C151.506 212.626 152.872 208.318 154.98 202.056C155.265 201.539 155.435 200.62 155.721 200.103C156.006 199.585 155.891 199.184 156.176 198.666C156.346 197.748 156.917 196.713 157.087 195.794C157.373 195.277 157.658 194.76 157.427 193.957C157.597 193.038 158.168 192.003 158.222 190.683C158.507 190.166 158.677 189.247 158.963 188.729C159.133 187.811 159.588 186.374 159.758 185.456C160.044 184.938 160.213 184.02 160.499 183.502C160.669 182.583 161.124 181.147 161.294 180.228C161.464 179.31 161.75 178.792 161.919 177.873C162.089 176.955 162.545 175.519 162.715 174.6C162.884 173.681 163.17 173.164 163.34 172.245C163.51 171.326 163.564 170.006 164.135 168.971C164.305 168.052 164.59 167.535 164.359 166.732C164.529 165.813 164.583 164.493 164.752 163.574C164.922 162.655 164.806 162.254 164.976 161.335C165.146 160.416 165.2 159.096 165.37 158.177C165.54 157.258 165.424 156.857 165.593 155.938C165.763 155.019 165.416 153.815 165.586 152.896C165.354 152.093 165.64 151.575 165.408 150.773C165.578 149.854 165.23 148.649 164.999 147.846C164.883 147.445 165.052 146.526 164.937 146.124C164.589 144.92 164.643 143.6 164.296 142.395L164.18 141.994C161.516 132.76 154.211 127.039 146.281 123.673C146.335 122.353 146.274 120.631 146.212 118.909L212.858 99.6799C214.464 99.2166 215.723 97.5488 215.661 95.827C215.545 95.4255 215.831 94.9082 215.715 94.5067C215.367 93.3022 214.734 92.6151 214.217 92.3294ZM122.556 137.912C122.154 138.028 122.154 138.028 121.637 137.742C118.996 137.634 116.757 137.41 114.286 136.383C111.298 135.071 108.48 132.84 106.75 129.86C106.001 128.771 105.538 127.165 105.19 125.96C104.843 124.756 104.611 123.953 104.665 122.633C104.549 122.231 104.549 122.231 104.835 121.714C104.943 119.073 105.167 116.834 106.193 114.363C107.506 111.375 109.737 108.557 112.717 106.827C113.806 106.078 115.412 105.615 116.616 105.268C117.821 104.92 118.624 104.688 119.944 104.742C120.345 104.626 120.345 104.626 120.863 104.912C123.503 105.02 125.743 105.244 128.213 106.271C131.201 107.583 134.02 109.814 135.749 112.794C136.498 113.883 136.962 115.489 137.309 116.694C137.657 117.898 137.888 118.701 137.834 120.021C137.95 120.423 137.95 120.423 137.665 120.94C137.557 123.581 137.333 125.82 136.306 128.291C134.994 131.279 132.763 134.097 129.782 135.827C128.694 136.576 127.088 137.039 125.883 137.386C124.679 137.734 123.876 137.966 122.556 137.912Z" fill="#FFC444"/>
</g>
</g>
</svg>
