<svg width="184" height="176" viewBox="0 0 184 176" fill="none" xmlns="http://www.w3.org/2000/svg">
<path d="M163.683 111.106C161 119.539 171.733 134.872 166.367 141.772C161 149.056 143.367 143.306 136.083 148.672C129.183 153.656 128.8 172.439 120.367 175.122C112.317 177.806 100.817 162.856 92 162.856C83.1833 162.856 71.6833 177.806 63.6333 175.122C55.2 172.439 54.8167 153.656 47.9167 148.672C41.0167 143.306 23 149.056 17.6333 141.772C12.65 134.872 23.3833 119.539 20.3167 111.106C17.6333 103.056 0 96.9224 0 87.7224C0 78.5224 17.6333 72.389 20.3167 64.339C23 55.9057 12.2667 40.5724 17.6333 33.6724C22.6167 26.389 40.6333 32.139 47.9167 26.7724C54.8167 21.789 55.2 3.0057 63.6333 0.322371C71.6833 -2.36096 83.1833 12.589 92 12.589C100.817 12.589 112.317 -2.36096 120.367 0.322371C128.8 3.0057 129.183 21.789 136.083 26.7724C142.983 32.139 161 26.389 166.367 33.6724C171.35 40.5724 160.617 55.9057 163.683 64.339C166.367 72.389 184 78.5224 184 87.7224C184 96.9224 166.367 103.056 163.683 111.106Z" fill="#FF003D"/>
<g clip-path="url(#clip0_1447_4497)">
<path d="M30.492 67.0515L32.6017 67.9229L31.3649 70.9728L40.5313 74.8216L39.5856 77.0001L30.4192 73.1514L29.1097 76.2013L27 75.2573L30.492 67.0515Z" fill="white"/>
<path d="M35.7298 58.5553L37.0393 56.522L47.2969 63.2028L45.9147 65.236L41.6953 62.4766L39.2218 66.2527L43.4412 69.0121L42.1318 71.0454L31.9469 64.3646L33.2564 62.3314L37.3303 64.9456L39.8038 61.1695L35.7298 58.5553Z" fill="white"/>
<path d="M48.3882 58.5553L51.8801 54.7792L53.5534 56.3768L48.3882 61.8957L39.5128 53.5447L44.6052 48.0984L46.2785 49.696L42.7865 53.3994L44.678 55.1423L47.8062 51.8019L49.4794 53.3268L46.3512 56.6672L48.3882 58.5553Z" fill="white"/>
<path d="M61.3375 50.7852C60.3191 51.4387 59.3006 51.8018 58.3548 51.8018C57.4091 51.8018 56.4634 51.5113 55.6631 50.9304L56.6816 48.8245C57.7728 49.6233 58.8641 49.6233 60.0281 48.8245C60.61 48.4614 60.901 48.0983 61.0465 47.7352C61.192 47.3722 61.1193 47.0091 60.901 46.7186C60.6828 46.3555 60.3191 46.2103 59.8826 46.2103C59.4461 46.2103 58.7186 46.3555 57.7001 46.7186C57.1181 46.8638 56.6816 47.0091 56.2451 47.0817C55.8086 47.1543 55.3721 47.1543 54.9356 47.1543C54.4991 47.1543 54.0626 47.0091 53.6261 46.7912C53.1897 46.5734 52.8987 46.2103 52.5349 45.702C51.9529 44.7579 51.7347 43.8139 52.0257 42.8699C52.3167 41.9259 52.8987 41.1271 53.8444 40.4735C54.6446 39.8926 55.5176 39.6747 56.3906 39.6021C57.2636 39.5295 58.1366 39.82 58.9368 40.3283L57.9183 42.4342C56.8999 41.8532 56.0269 41.8532 55.0811 42.4342C54.6446 42.7246 54.4264 43.0151 54.2809 43.3782C54.1354 43.7413 54.2081 44.0318 54.4264 44.3222C54.6446 44.6127 54.9356 44.8305 55.3721 44.8305C55.7359 44.8305 56.3906 44.7579 57.3363 44.4675C57.7001 44.3948 57.9911 44.2496 58.2093 44.2496C58.4276 44.177 58.6458 44.1044 59.0096 44.0318C59.3733 43.9591 59.6643 43.9591 59.8826 43.8865C60.1008 43.8865 60.3918 43.8865 60.6828 43.9591C60.9738 44.0318 61.2648 44.0318 61.483 44.177C61.7013 44.2496 61.9195 44.4675 62.1378 44.6127C62.356 44.8305 62.5743 45.0484 62.7925 45.3389C63.4473 46.2829 63.5928 47.2269 63.229 48.2436C63.1563 49.1876 62.4288 50.059 61.3375 50.7852Z" fill="white"/>
<path d="M72.1771 31.832L76.7603 43.1603L74.5051 44.0317L71.5224 36.6974L70.4311 43.2329L70.1401 43.3056L64.8295 39.3842L67.8122 46.7186L65.5569 47.59L61.0465 36.2617L63.3745 35.3177L68.7579 39.3842L69.8491 32.7034L72.1771 31.832Z" fill="white"/>
<path d="M86.1449 41.4901L85.0537 39.4568L80.2522 40.2556L79.8885 42.5067L77.3423 42.9424L79.5248 30.2344L82.4347 29.7261L88.6911 41.0544L86.1449 41.4901ZM80.616 37.9318L83.8897 37.3509L81.4162 32.7034L80.616 37.9318Z" fill="white"/>
<path d="M96.1115 41.3449L93.7108 37.0605L91.892 36.9879L91.8193 41.1997L89.4186 41.1271L89.6368 29L94.511 29.0726C95.675 29.0726 96.6207 29.5083 97.3482 30.3071C98.1484 31.1059 98.5122 32.0499 98.4394 33.2118C98.4394 33.938 98.2212 34.6641 97.7847 35.3177C97.3482 35.9713 96.7662 36.407 96.0387 36.77L98.6577 41.4176L96.1115 41.3449ZM92.0375 31.3238L91.9648 34.9546L94.4383 35.0272C94.8747 35.0272 95.3112 34.882 95.6022 34.5189C95.966 34.0832 96.1115 33.6475 96.1115 33.2118C96.1115 32.7035 95.966 32.2678 95.675 31.9047C95.384 31.5416 94.9475 31.3964 94.511 31.3238H92.0375Z" fill="white"/>
<path d="M109.57 31.0334L109.134 33.3571L105.86 32.7762L104.114 42.4343L101.713 41.9986L103.532 32.2679L100.331 31.6869L100.767 29.4358L109.57 31.0334Z" fill="white"/>
<path d="M114.371 45.4114L117.063 32.9939L119.318 34.1558L117.209 43.2329L123.683 36.4069L125.502 37.3509L123.538 46.5733L129.794 39.6747L132.049 40.8366L123.32 50.059L120.919 48.7518L122.665 40.5461L116.918 46.6459L114.371 45.4114Z" fill="white"/>
<path d="M132.122 57.248L132.995 55.1421L129.285 51.947L127.321 53.1089L125.357 51.4387L136.633 45.0483L138.888 47.009L134.086 59.0635L132.122 57.248ZM131.395 50.7125L133.941 52.891L135.978 48.0256L131.395 50.7125Z" fill="white"/>
<path d="M149 58.0469L140.561 59.5719L136.924 62.6218L135.396 60.8064L139.033 57.7565L142.089 49.7686L143.835 51.8745L141.652 57.1755L147.254 55.941L149 58.0469Z" fill="white"/>
</g>
<path d="M100.545 51.7836C80.9995 67.4242 86.9066 70.9257 88.9057 82.0319C90.3701 75.9887 94.5763 74.3503 98.0065 68.4315C98.0065 68.4315 100.785 77.0652 90.819 83.5726C101.671 85.5523 119.976 72.7854 100.545 51.7836Z" fill="white"/>
<path d="M79.1338 82.4972L69.9507 108.477L74.9681 105.856L83.3592 122.655L108.473 109.535L100.082 92.736L105.099 90.1147L79.1338 82.4972ZM91.2378 100.396L86.2205 103.018L83.8248 98.2215L88.8422 95.6003L91.2378 100.396Z" fill="white"/>
<defs>
<clipPath id="clip0_1447_4497">
<rect width="122" height="48" fill="white" transform="translate(27 29)"/>
</clipPath>
</defs>
</svg>
