<svg width="111" height="106" viewBox="0 0 111 106" fill="none" xmlns="http://www.w3.org/2000/svg">
<path d="M98.7438 67.0257C97.125 72.1132 103.6 81.3632 100.363 85.5257C97.125 89.9195 86.4875 86.4507 82.0938 89.6882C77.9313 92.6945 77.7 104.026 72.6125 105.644C67.7562 107.263 60.8187 98.2445 55.5 98.2445C50.1813 98.2445 43.2438 107.263 38.3875 105.644C33.3 104.026 33.0687 92.6945 28.9062 89.6882C24.7437 86.4507 13.875 89.9195 10.6375 85.5257C7.63125 81.3632 14.1063 72.1132 12.2563 67.0257C10.6375 62.1695 0 58.4695 0 52.9195C0 47.3695 10.6375 43.6695 12.2563 38.8132C13.875 33.7257 7.4 24.4757 10.6375 20.3132C13.6437 15.9195 24.5125 19.3882 28.9062 16.1507C33.0687 13.1445 33.3 1.81322 38.3875 0.194474C43.2438 -1.42428 50.1813 7.59447 55.5 7.59447C60.8187 7.59447 67.7562 -1.42428 72.6125 0.194474C77.7 1.81322 77.9313 13.1445 82.0938 16.1507C86.2562 19.3882 97.125 15.9195 100.363 20.3132C103.369 24.4757 96.8938 33.7257 98.7438 38.8132C100.363 43.6695 111 47.3695 111 52.9195C111 58.4695 100.363 62.1695 98.7438 67.0257Z" fill="#CCEEF2"/>
<g clip-path="url(#clip0_1543_511)">
<path d="M18.3946 40.4495L19.6673 40.9751L18.9213 42.815L24.451 45.1368L23.8804 46.451L18.3507 44.1293L17.5608 45.9692L16.2881 45.3997L18.3946 40.4495Z" fill="#001192"/>
<path d="M21.5544 35.3243L22.3444 34.0977L28.5324 38.1279L27.6986 39.3545L25.1531 37.6898L23.661 39.9678L26.2064 41.6325L25.4165 42.8591L19.2723 38.8288L20.0623 37.6022L22.5199 39.1793L24.0121 36.9013L21.5544 35.3243Z" fill="#001192"/>
<path d="M29.1907 35.3241L31.2973 33.0461L32.3067 34.0099L29.1907 37.3392L23.8365 32.3014L26.9086 29.0159L27.918 29.9796L25.8114 32.2138L26.9525 33.2652L28.8396 31.25L29.849 32.17L27.9619 34.1851L29.1907 35.3241Z" fill="#001192"/>
<path d="M37.0025 30.6368C36.3881 31.031 35.7737 31.2501 35.2032 31.2501C34.6326 31.2501 34.0621 31.0748 33.5794 30.7244L34.1938 29.454C34.8521 29.9358 35.5104 29.9358 36.2126 29.454C36.5637 29.2349 36.7392 29.0159 36.827 28.7969C36.9147 28.5778 36.8709 28.3588 36.7392 28.1836C36.6075 27.9645 36.3881 27.8769 36.1248 27.8769C35.8615 27.8769 35.4226 27.9645 34.8082 28.1836C34.4571 28.2712 34.1938 28.3588 33.9305 28.4026C33.6671 28.4464 33.4038 28.4464 33.1405 28.4464C32.8772 28.4464 32.6139 28.3588 32.3505 28.2274C32.0872 28.0959 31.9117 27.8769 31.6922 27.5703C31.3411 27.0008 31.2095 26.4313 31.385 25.8618C31.5606 25.2923 31.9117 24.8104 32.4822 24.4161C32.965 24.0657 33.4916 23.9343 34.0182 23.8905C34.5449 23.8466 35.0715 24.0219 35.5543 24.3285L34.9398 25.5989C34.3254 25.2485 33.7988 25.2485 33.2283 25.5989C32.965 25.7742 32.8333 25.9494 32.7455 26.1684C32.6577 26.3875 32.7016 26.5627 32.8333 26.7379C32.965 26.9131 33.1405 27.0446 33.4038 27.0446C33.6233 27.0446 34.0182 27.0008 34.5888 26.8255C34.8082 26.7817 34.9837 26.6941 35.1154 26.6941C35.2471 26.6503 35.3787 26.6065 35.5981 26.5627C35.8176 26.5189 35.9931 26.5189 36.1248 26.4751C36.2564 26.4751 36.432 26.4751 36.6075 26.5189C36.7831 26.5627 36.9586 26.5627 37.0903 26.6503C37.222 26.6941 37.3536 26.8255 37.4853 26.9131C37.6169 27.0446 37.7486 27.176 37.8803 27.3512C38.2752 27.9207 38.363 28.4902 38.1436 29.1035C38.0997 29.673 37.6608 30.1987 37.0025 30.6368Z" fill="#001192"/>
<path d="M43.5416 19.2031L46.3065 26.037L44.946 26.5627L43.1467 22.1382L42.4884 26.0808L42.3128 26.1247L39.1091 23.7591L40.9084 28.1836L39.548 28.7093L36.827 21.8754L38.2314 21.3059L41.479 23.7591L42.1373 19.7288L43.5416 19.2031Z" fill="#001192"/>
<path d="M51.9679 25.0294L51.3096 23.8028L48.4131 24.2847L48.1936 25.6427L46.6576 25.9055L47.9742 18.2393L49.7297 17.9326L53.5039 24.7665L51.9679 25.0294ZM48.6325 22.8828L50.6074 22.5324L49.1152 19.7287L48.6325 22.8828Z" fill="#001192"/>
<path d="M57.9803 24.9418L56.5321 22.3572L55.4349 22.3134L55.391 24.8542L53.9427 24.8104L54.0744 17.4946L57.0148 17.5384C57.717 17.5384 58.2875 17.8013 58.7264 18.2832C59.2091 18.765 59.4286 19.3345 59.3847 20.0354C59.3847 20.4735 59.253 20.9116 58.9897 21.3059C58.7264 21.7001 58.3753 21.963 57.9364 22.182L59.5163 24.9857L57.9803 24.9418ZM55.5227 18.8965L55.4788 21.0868L56.9709 21.1306C57.2342 21.1306 57.4976 21.043 57.6731 20.824C57.8925 20.5611 57.9803 20.2983 57.9803 20.0354C57.9803 19.7288 57.8925 19.466 57.717 19.2469C57.5414 19.0279 57.2781 18.9403 57.0148 18.8965H55.5227Z" fill="#001192"/>
<path d="M66.0994 18.7213L65.836 20.1232L63.8611 19.7727L62.8079 25.599L61.3596 25.3362L62.4568 19.466L60.5258 19.1156L60.7891 17.7576L66.0994 18.7213Z" fill="#001192"/>
<path d="M68.9958 27.3951L70.6197 19.9041L71.9801 20.605L70.7074 26.0809L74.6133 21.963L75.7105 22.5325L74.5256 28.096L78.2998 23.9343L79.6603 24.6352L74.3939 30.1987L72.9456 29.4102L73.9989 24.46L70.5319 28.1398L68.9958 27.3951Z" fill="#001192"/>
<path d="M79.7042 34.5356L80.2308 33.2652L77.9926 31.3377L76.8077 32.0386L75.6227 31.0311L82.4252 27.176L83.7857 28.3588L80.8891 35.6308L79.7042 34.5356ZM79.2653 30.593L80.8014 31.9072L82.0302 28.9721L79.2653 30.593Z" fill="#001192"/>
<path d="M89.8859 35.0175L84.795 35.9374L82.6007 37.7773L81.6791 36.6821L83.8734 34.8422L85.7166 30.0234L86.7699 31.2938L85.4533 34.4918L88.8326 33.747L89.8859 35.0175Z" fill="#001192"/>
</g>
<path d="M60.6767 31.2414C48.8591 40.704 52.4209 42.8035 53.6144 49.4937C54.5057 45.8487 57.0468 44.8535 59.1246 41.28C59.1246 41.28 60.7913 46.4785 54.7676 50.4188C61.3161 51.5921 72.3818 43.8639 60.6767 31.2414Z" fill="#001192"/>
<path d="M47.7554 49.7939L42.1815 65.4668L45.2131 63.878L50.2581 73.9859L65.4326 66.0335L60.3876 55.9256L63.4193 54.3369L47.7554 49.7939ZM55.0402 60.558L52.0086 62.1468L50.5682 59.261L53.5999 57.6723L55.0402 60.558Z" fill="#001192"/>
<defs>
<clipPath id="clip0_1543_511">
<rect width="73.5978" height="28.9565" fill="white" transform="translate(16.2881 17.4946)"/>
</clipPath>
</defs>
</svg>
