<svg width="178" height="194" viewBox="0 0 178 194" fill="none" xmlns="http://www.w3.org/2000/svg">
<path d="M22.8976 128.055C21.2058 128.346 20.178 129.915 20.4726 131.615C23.2277 148.503 32.9293 163.692 46.3607 172.383C59.3705 180.701 74.9092 182.845 91.5736 178.379C93.6754 177.816 95.7368 177.102 97.9483 176.348C99.4092 175.795 100.177 174.457 99.923 172.908C97.2198 156.814 89.447 144.02 77.6093 135.872C63.485 126.397 44.089 123.67 22.8976 128.055Z" fill="#00C172"/>
<path d="M160.994 93.9624C160.399 92.343 158.724 91.498 157.113 92.0914C136.419 98.9302 120.985 110.989 113.681 126.368C107.353 139.384 107.169 154.31 112.874 169.599C113.429 171.068 114.913 171.802 116.305 171.591C118.597 171.138 120.739 170.726 122.841 170.163C139.505 165.698 152.041 156.032 158.998 142.363C166.285 128.121 166.942 110.157 160.994 93.9624Z" fill="#00C172"/>
<path d="M121.462 68.3321C115.357 45.5497 91.8783 31.7889 69.0587 37.9034C46.239 44.0179 32.7861 67.6745 38.8906 90.4569C44.9951 113.239 68.5144 127.151 91.3341 121.036C114.154 114.922 127.607 91.2653 121.462 68.3321Z" fill="#00C172"/>
<g clip-path="url(#clip0_1447_4472)">
<path d="M17.5799 69.875L17.8053 67.7186L28.8241 68.9865L28.5987 71.1429L23.9984 70.6407L23.5512 74.7438L28.1515 75.246L27.9262 77.4024L16.8442 76.1543L17.0695 73.9979L21.4605 74.4964L21.9076 70.3933L17.5799 69.875Z" fill="white"/>
<path d="M27.8919 64.6908L29.2472 60.1635L31.2477 60.7868L29.2915 67.3798L18.6606 64.2521L20.6367 57.7224L22.6372 58.3457L21.3253 62.7898L23.6183 63.4603L24.84 59.3921L26.8207 59.9521L25.5159 63.9768L27.8919 64.6908Z" fill="white"/>
<path d="M30.7903 56.8982L32.5736 53.0708L34.4442 53.9435L31.7043 59.8092L21.6672 55.0351L22.5804 53.0799L30.7903 56.8982Z" fill="white"/>
<path d="M27.9811 43.5285C28.6039 42.6377 29.409 42.1069 30.3767 41.8726C31.3643 41.7015 32.3248 41.8866 33.1951 42.4476C34.0654 43.0086 34.5963 43.8152 34.7878 44.8674C34.9794 45.9196 34.7755 46.8179 34.1527 47.7086L33.057 49.304L36.0598 51.3507L34.8341 53.1954L25.6598 46.9686L27.9811 43.5285ZM32.4753 46.5668C32.7118 46.2145 32.8453 45.7554 32.7062 45.3124C32.5671 44.8694 32.3847 44.5096 31.9496 44.2291C31.5144 43.9486 31.1389 43.8579 30.6767 43.9335C30.2145 44.0091 29.8751 44.2547 29.6387 44.607L28.543 46.2024L31.3597 48.0989L32.4753 46.5668Z" fill="white"/>
<path d="M45.4809 40.6759C44.6721 41.4165 43.8272 41.8208 42.9029 41.972C41.9785 42.1231 41.1642 41.9617 40.3968 41.5074L41.0609 39.4218C42.1407 39.9866 43.1282 39.8156 44.1067 38.9522C44.5327 38.5404 44.8324 38.1682 44.8594 37.8121C44.9496 37.4362 44.8503 37.1198 44.6444 36.9063C44.4187 36.6296 44.0432 36.5389 43.6442 36.5947C43.2452 36.6504 42.6331 36.9121 41.7883 37.3164C41.3026 37.5384 40.9434 37.7207 40.5642 37.8397C40.1851 37.9588 39.806 38.0778 39.3871 38.0703C38.9881 38.126 38.5494 38.0552 38.154 37.9013C37.7586 37.7473 37.3866 37.447 37.0579 37.0635C36.4007 36.2966 36.1424 35.4739 36.2632 34.5322C36.384 33.5905 36.8371 32.8226 37.5827 32.1019C38.2217 31.4841 39.0034 31.0996 39.8014 30.9881C40.5994 30.8766 41.3938 30.9748 42.1846 31.2827L41.5006 33.305C40.5437 32.9102 39.6825 33.0415 38.9803 33.6791C38.6608 33.988 38.4243 34.3404 38.3774 34.6332C38.3305 34.926 38.4298 35.2424 38.6357 35.4558C38.8614 35.7326 39.1738 35.8431 39.5096 35.8072C39.8454 35.7712 40.4773 35.5729 41.1958 35.2082C41.4918 35.0458 41.7446 34.9664 41.9342 34.9069C42.1237 34.8474 42.3566 34.7047 42.6726 34.6055C42.9885 34.5063 43.2412 34.427 43.4308 34.3675C43.6204 34.3079 43.8298 34.3117 44.1024 34.2956C44.375 34.2796 44.6043 34.3466 44.8336 34.4137C45.0629 34.4807 45.2291 34.5676 45.4981 34.7612C45.7473 34.8916 45.9531 35.105 46.159 35.3185C46.8163 36.0854 47.0944 36.9713 46.9736 37.9131C46.8527 38.8548 46.3961 39.8324 45.4809 40.6759Z" fill="white"/>
<path d="M55.0307 33.5062L53.4201 32.1348L49.6506 34.5002L50.16 36.5649L48.1273 37.8288L45.6017 26.247L47.9305 24.8207L57.1266 32.2225L55.0307 33.5062ZM49.2044 32.4156L51.8293 30.8268L48.153 27.7402L49.2044 32.4156Z" fill="white"/>
<path d="M59.6975 31.346L52.1622 22.3799L54.3972 21.5392L60.06 28.5209L59.4594 19.5327L61.6745 18.6287L62.2286 30.3428L59.6975 31.346Z" fill="white"/>
<path d="M68.0976 26.4839L72.6598 25.5382L73.106 27.6227L66.399 29.0333L64.1551 18.1278L70.799 16.7371L71.2452 18.8217L66.7462 19.7476L67.1888 22.0418L71.2889 21.1717L71.7152 23.193L67.6152 24.0631L68.0976 26.4839Z" fill="white"/>
<path d="M82.4982 16.1925C83.5453 16.2113 84.4391 16.6259 85.1596 17.373C85.8801 18.1201 86.2214 18.9862 86.1403 20.0545C86.1224 21.1029 85.7091 21.9974 84.9436 22.6549C84.1981 23.3756 83.2503 23.6732 82.2031 23.6543L80.2352 23.577L80.131 27.2248L77.9536 27.1437L78.3529 16.034L82.4982 16.1925ZM82.322 21.6009C82.804 21.5886 83.1832 21.4696 83.5027 21.1607C83.8222 20.8518 83.9756 20.456 84.0261 19.9536C84.0134 19.4709 83.8942 19.0912 83.5655 18.7077C83.2568 18.3876 82.9245 18.2138 82.4226 18.1628L80.4547 18.0855L80.3342 21.4603L82.322 21.6009Z" fill="white"/>
<path d="M92.7982 28.8789L92.5614 26.7981L88.1975 25.9435L87.1813 27.792L84.8847 27.3312L90.8413 17.1186L93.5134 17.67L95.158 29.3199L92.7982 28.8789ZM89.3202 23.9921L92.2849 24.5907L91.6956 19.8397L89.3202 23.9921Z" fill="white"/>
<path d="M99.4355 19.2866L101.539 20.0166L97.9024 30.5437L95.799 29.8137L99.4355 19.2866Z" fill="white"/>
<path d="M110.291 24.0126L112.264 24.9919L107.192 34.9268L105.697 34.1449L104.497 25.901L101.398 31.949L99.4245 30.9697L104.496 21.0348L105.991 21.8167L107.191 30.0606L110.291 24.0126Z" fill="white"/>
<path d="M121.162 31.4445L119.877 33.0994L117.499 31.2737L112.055 38.4752L110.318 37.1435L115.762 29.942L113.384 28.1164L114.669 26.4615L121.162 31.4445Z" fill="white"/>
<path d="M119.211 45.1273L126.426 36.0489L127.776 37.919L122.343 44.4914L130.375 41.5525L131.48 43.0826L126.169 49.825L134.079 46.7161L135.429 48.5862L124.594 52.5444L123.12 50.5043L127.831 44.5062L120.664 47.1041L119.211 45.1273Z" fill="white"/>
<path d="M128.811 61.996L130.385 60.598L128.674 56.4771L126.64 56.6293L125.735 54.4106L137.541 53.763L138.608 56.2782L129.842 64.175L128.811 61.996ZM130.855 56.3485L132.022 59.1802L135.616 56.0356L130.855 56.3485Z" fill="white"/>
<path d="M130.315 68.3367C130.041 67.241 130.098 66.3192 130.449 65.4445C130.799 64.5698 131.292 63.9285 132.053 63.4807L133.534 65.1015C132.496 65.775 132.166 66.7129 132.417 67.955C132.532 68.5444 132.735 68.9675 133.024 69.2244C133.313 69.4813 133.605 69.5285 133.941 69.4926C134.34 69.4368 134.596 69.1478 134.686 68.7719C134.84 68.3761 134.914 67.7272 134.971 66.8053C135.022 66.3028 135.092 65.8636 135.119 65.5075C135.21 65.1316 135.3 64.7557 135.453 64.3599C135.607 63.9641 135.863 63.6751 136.182 63.3662C136.522 63.1206 136.944 62.9185 137.406 62.8429C138.374 62.6086 139.271 62.8135 139.996 63.3509C140.739 63.9516 141.187 64.7147 141.422 65.6838C141.637 66.5896 141.54 67.3849 141.296 68.1566C140.989 68.9481 140.56 69.5697 139.838 70.144L138.377 68.5865C139.225 67.9725 139.532 67.181 139.297 66.2119C139.221 65.7491 139.059 65.4525 138.77 65.1956C138.501 65.002 138.208 64.9548 137.873 64.9907C137.557 65.0899 137.261 65.2524 137.15 65.565C137.04 65.8777 136.883 66.4831 136.806 67.3417C136.779 67.6978 136.732 67.9906 136.708 68.137C136.705 68.3467 136.638 68.5762 136.591 68.869C136.544 69.1619 136.497 69.4547 136.411 69.6209C136.324 69.7872 136.257 70.0167 136.127 70.266C135.997 70.5154 135.848 70.7015 135.698 70.8876C135.528 71.0104 135.315 71.2163 135.062 71.2957C134.81 71.375 134.513 71.5375 134.261 71.6168C133.293 71.8511 132.396 71.6462 131.652 71.0455C131.097 70.3853 130.547 69.5155 130.315 68.3367Z" fill="white"/>
<path d="M142.944 79.5967L140.826 79.7054L140.647 76.7027L131.651 77.2331L131.521 75.0494L140.58 74.4991L140.401 71.4965L142.519 71.3877L142.944 79.5967Z" fill="white"/>
<path d="M133.681 83.4783L133.203 88.1472L131.132 87.9631L131.816 81.0745L142.921 82.1762L142.281 88.9816L140.21 88.7975L140.645 84.2118L138.281 83.9805L137.874 88.2102L135.803 88.0261L136.211 83.7965L133.681 83.4783Z" fill="white"/>
</g>
<defs>
<clipPath id="clip0_1447_4472">
<rect width="122.193" height="91.2018" fill="white" transform="translate(4.42627 36.6025) rotate(-17.4305)"/>
</clipPath>
</defs>
</svg>
